# xmcd
#
# Track frame offsets:
#	150
#	22330
#	46394
#	63954
#	93479
#	123142
#	144501
#	170788
#	195076
#	234655
#	248103
#
# Disc length: 3688
#
# Revision: 1
# Processed by: cddbd v1.5.1PL0 Copyright (c) Steve Scherf et al.
# Submitted via: CDex 1.50Beta5
# Normalized: r0:TDELIM( - )
#
DISCID=940e660b
DTITLE=jazznojazz - compilation 2001 - Zurich international festival [CD2)
DYEAR=2001
DGENRE=Jazz
TTITLE0=Mardi Gras.BB - Psychoflute (well wicked remix)
TTITLE1=Jimi Tenor - Spell
TTITLE2=Omar - I guess
TTITLE3=RAD. - Mean and lean
TTITLE4=John Scofield - A go go
TTITLE5=Buge Wesseltoft - Sharing
TTITLE6=Lonnie Liston Smith and The cosmic echoes - Expansions
TTITLE7=Zuco 103 - Gravata Florida
TTITLE8=Yonderboi - Milonga del mar
TTITLE9=Ekova - In the kitchen
TTITLE10=Renaud Garcia-Fons Oriental Brass - Jullündur (live)
EXTD=YEAR: 2001
EXTT0=
EXTT1=
EXTT2=
EXTT3=
EXTT4=
EXTT5=
EXTT6=
EXTT7=
EXTT8=
EXTT9=
EXTT10=
PLAYORDER=
